<svg height="2878" width="720" xmlns="http://www.w3.org/2000/svg">
<rect height="2878" fill="#555" width="720"></rect>
<text fill="#7f7" font-family="Courier New" font-size="12" xml:space="preserve">
<tspan x="10" y="26">22 megabytes installed</tspan>
<tspan x="10" y="42"></tspan>
<tspan x="10" y="58">node_modules</tspan>
<tspan x="10" y="74">└─┬ yeoman-generator@1.1.1 </tspan>
<tspan x="10" y="90">  ├── async@2.3.0 </tspan>
<tspan x="10" y="106">  ├─┬ chalk@1.1.3 </tspan>
<tspan x="10" y="122">  │ ├── ansi-styles@2.2.1 </tspan>
<tspan x="10" y="138">  │ ├── escape-string-regexp@1.0.5 </tspan>
<tspan x="10" y="154">  │ ├─┬ has-ansi@2.0.0 </tspan>
<tspan x="10" y="170">  │ │ └── ansi-regex@2.1.1 </tspan>
<tspan x="10" y="186">  │ ├── strip-ansi@3.0.1 </tspan>
<tspan x="10" y="202">  │ └── supports-color@2.0.0 </tspan>
<tspan x="10" y="218">  ├─┬ class-extend@0.1.2 </tspan>
<tspan x="10" y="234">  │ └── object-assign@2.1.1 </tspan>
<tspan x="10" y="250">  ├─┬ cli-table@0.3.1 </tspan>
<tspan x="10" y="266">  │ └── colors@1.0.3 </tspan>
<tspan x="10" y="282">  ├─┬ cross-spawn@5.1.0 </tspan>
<tspan x="10" y="298">  │ ├─┬ lru-cache@4.0.2 </tspan>
<tspan x="10" y="314">  │ │ ├── pseudomap@1.0.2 </tspan>
<tspan x="10" y="330">  │ │ └── yallist@2.1.2 </tspan>
<tspan x="10" y="346">  │ ├─┬ shebang-command@1.2.0 </tspan>
<tspan x="10" y="362">  │ │ └── shebang-regex@1.0.0 </tspan>
<tspan x="10" y="378">  │ └─┬ which@1.2.14 </tspan>
<tspan x="10" y="394">  │   └── isexe@2.0.0 </tspan>
<tspan x="10" y="410">  ├── dargs@5.1.0 </tspan>
<tspan x="10" y="426">  ├── dateformat@2.0.0 </tspan>
<tspan x="10" y="442">  ├─┬ debug@2.6.3 </tspan>
<tspan x="10" y="458">  │ └── ms@0.7.2 </tspan>
<tspan x="10" y="474">  ├── detect-conflict@1.0.1 </tspan>
<tspan x="10" y="490">  ├─┬ error@7.0.2 </tspan>
<tspan x="10" y="506">  │ ├── string-template@0.2.1 </tspan>
<tspan x="10" y="522">  │ └── xtend@4.0.1 </tspan>
<tspan x="10" y="538">  ├─┬ find-up@2.1.0 </tspan>
<tspan x="10" y="554">  │ └─┬ locate-path@2.0.0 </tspan>
<tspan x="10" y="570">  │   └─┬ p-locate@2.0.0 </tspan>
<tspan x="10" y="586">  │     └── p-limit@1.1.0 </tspan>
<tspan x="10" y="602">  ├─┬ github-username@3.0.0 </tspan>
<tspan x="10" y="618">  │ └─┬ gh-got@5.0.0 </tspan>
<tspan x="10" y="634">  │   ├─┬ got@6.7.1 </tspan>
<tspan x="10" y="650">  │   │ ├─┬ create-error-class@3.0.2 </tspan>
<tspan x="10" y="666">  │   │ │ └── capture-stack-trace@1.0.0 </tspan>
<tspan x="10" y="682">  │   │ ├── duplexer3@0.1.4 </tspan>
<tspan x="10" y="698">  │   │ ├── get-stream@3.0.0 </tspan>
<tspan x="10" y="714">  │   │ ├── is-redirect@1.0.0 </tspan>
<tspan x="10" y="730">  │   │ ├── is-retry-allowed@1.1.0 </tspan>
<tspan x="10" y="746">  │   │ ├── lowercase-keys@1.0.0 </tspan>
<tspan x="10" y="762">  │   │ ├── safe-buffer@5.0.1 </tspan>
<tspan x="10" y="778">  │   │ ├── timed-out@4.0.1 </tspan>
<tspan x="10" y="794">  │   │ ├── unzip-response@2.0.1 </tspan>
<tspan x="10" y="810">  │   │ └─┬ url-parse-lax@1.0.0 </tspan>
<tspan x="10" y="826">  │   │   └── prepend-http@1.0.4 </tspan>
<tspan x="10" y="842">  │   └── is-plain-obj@1.1.0 </tspan>
<tspan x="10" y="858">  ├─┬ glob@7.1.1 </tspan>
<tspan x="10" y="874">  │ ├── fs.realpath@1.0.0 </tspan>
<tspan x="10" y="890">  │ ├─┬ inflight@1.0.6 </tspan>
<tspan x="10" y="906">  │ │ └── wrappy@1.0.2 </tspan>
<tspan x="10" y="922">  │ ├── inherits@2.0.3 </tspan>
<tspan x="10" y="938">  │ ├─┬ minimatch@3.0.3 </tspan>
<tspan x="10" y="954">  │ │ └─┬ brace-expansion@1.1.7 </tspan>
<tspan x="10" y="970">  │ │   ├── balanced-match@0.4.2 </tspan>
<tspan x="10" y="986">  │ │   └── concat-map@0.0.1 </tspan>
<tspan x="10" y="1002">  │ └── once@1.4.0 </tspan>
<tspan x="10" y="1018">  ├─┬ istextorbinary@2.1.0 </tspan>
<tspan x="10" y="1034">  │ ├── binaryextensions@2.0.0 </tspan>
<tspan x="10" y="1050">  │ ├── editions@1.3.3 </tspan>
<tspan x="10" y="1066">  │ └── textextensions@2.0.1 </tspan>
<tspan x="10" y="1082">  ├── lodash@4.17.4 </tspan>
<tspan x="10" y="1098">  ├─┬ mem-fs-editor@3.0.2 </tspan>
<tspan x="10" y="1114">  │ ├── commondir@1.0.1 </tspan>
<tspan x="10" y="1130">  │ ├── deep-extend@0.4.1 </tspan>
<tspan x="10" y="1146">  │ ├── ejs@2.5.6 </tspan>
<tspan x="10" y="1162">  │ ├─┬ globby@6.1.0 </tspan>
<tspan x="10" y="1178">  │ │ ├─┬ array-union@1.0.2 </tspan>
<tspan x="10" y="1194">  │ │ │ └── array-uniq@1.0.3 </tspan>
<tspan x="10" y="1210">  │ │ ├── object-assign@4.1.1 </tspan>
<tspan x="10" y="1226">  │ │ └─┬ pinkie-promise@2.0.1 </tspan>
<tspan x="10" y="1242">  │ │   └── pinkie@2.0.4 </tspan>
<tspan x="10" y="1258">  │ ├─┬ multimatch@2.1.0 </tspan>
<tspan x="10" y="1274">  │ │ ├── array-differ@1.0.0 </tspan>
<tspan x="10" y="1290">  │ │ └── arrify@1.0.1 </tspan>
<tspan x="10" y="1306">  │ └─┬ vinyl@2.0.1 </tspan>
<tspan x="10" y="1322">  │   ├── clone@1.0.2 </tspan>
<tspan x="10" y="1338">  │   ├── clone-buffer@1.0.0 </tspan>
<tspan x="10" y="1354">  │   ├── clone-stats@1.0.0 </tspan>
<tspan x="10" y="1370">  │   ├── cloneable-readable@1.0.0 </tspan>
<tspan x="10" y="1386">  │   ├── is-stream@1.1.0 </tspan>
<tspan x="10" y="1402">  │   ├── remove-trailing-separator@1.0.1 </tspan>
<tspan x="10" y="1418">  │   └── replace-ext@1.0.0 </tspan>
<tspan x="10" y="1434">  ├── minimist@1.2.0 </tspan>
<tspan x="10" y="1450">  ├─┬ mkdirp@0.5.1 </tspan>
<tspan x="10" y="1466">  │ └── minimist@0.0.8 </tspan>
<tspan x="10" y="1482">  ├── path-exists@3.0.0 </tspan>
<tspan x="10" y="1498">  ├── path-is-absolute@1.0.1 </tspan>
<tspan x="10" y="1514">  ├── pretty-bytes@4.0.2 </tspan>
<tspan x="10" y="1530">  ├─┬ read-chunk@2.0.0 </tspan>
<tspan x="10" y="1546">  │ └── pify@2.3.0 </tspan>
<tspan x="10" y="1562">  ├─┬ read-pkg-up@2.0.0 </tspan>
<tspan x="10" y="1578">  │ └─┬ read-pkg@2.0.0 </tspan>
<tspan x="10" y="1594">  │   ├─┬ load-json-file@2.0.0 </tspan>
<tspan x="10" y="1610">  │   │ ├── graceful-fs@4.1.11 </tspan>
<tspan x="10" y="1626">  │   │ ├─┬ parse-json@2.2.0 </tspan>
<tspan x="10" y="1642">  │   │ │ └─┬ error-ex@1.3.1 </tspan>
<tspan x="10" y="1658">  │   │ │   └── is-arrayish@0.2.1 </tspan>
<tspan x="10" y="1674">  │   │ └── strip-bom@3.0.0 </tspan>
<tspan x="10" y="1690">  │   ├─┬ normalize-package-data@2.3.6 </tspan>
<tspan x="10" y="1706">  │   │ ├── hosted-git-info@2.4.1 </tspan>
<tspan x="10" y="1722">  │   │ ├─┬ is-builtin-module@1.0.0 </tspan>
<tspan x="10" y="1738">  │   │ │ └── builtin-modules@1.1.1 </tspan>
<tspan x="10" y="1754">  │   │ ├── semver@5.3.0 </tspan>
<tspan x="10" y="1770">  │   │ └─┬ validate-npm-package-license@3.0.1 </tspan>
<tspan x="10" y="1786">  │   │   ├─┬ spdx-correct@1.0.2 </tspan>
<tspan x="10" y="1802">  │   │   │ └── spdx-license-ids@1.2.2 </tspan>
<tspan x="10" y="1818">  │   │   └── spdx-expression-parse@1.0.4 </tspan>
<tspan x="10" y="1834">  │   └── path-type@2.0.0 </tspan>
<tspan x="10" y="1850">  ├── rimraf@2.6.1 </tspan>
<tspan x="10" y="1866">  ├─┬ run-async@2.3.0 </tspan>
<tspan x="10" y="1882">  │ └── is-promise@2.1.0 </tspan>
<tspan x="10" y="1898">  ├─┬ shelljs@0.7.7 </tspan>
<tspan x="10" y="1914">  │ ├── interpret@1.0.2 </tspan>
<tspan x="10" y="1930">  │ └─┬ rechoir@0.6.2 </tspan>
<tspan x="10" y="1946">  │   └─┬ resolve@1.3.2 </tspan>
<tspan x="10" y="1962">  │     └── path-parse@1.0.5 </tspan>
<tspan x="10" y="1978">  ├── text-table@0.2.0 </tspan>
<tspan x="10" y="1994">  ├─┬ through2@2.0.3 </tspan>
<tspan x="10" y="2010">  │ └─┬ readable-stream@2.2.9 </tspan>
<tspan x="10" y="2026">  │   ├── buffer-shims@1.0.0 </tspan>
<tspan x="10" y="2042">  │   ├── core-util-is@1.0.2 </tspan>
<tspan x="10" y="2058">  │   ├── isarray@1.0.0 </tspan>
<tspan x="10" y="2074">  │   ├── process-nextick-args@1.0.7 </tspan>
<tspan x="10" y="2090">  │   ├── string_decoder@1.0.0 </tspan>
<tspan x="10" y="2106">  │   └── util-deprecate@1.0.2 </tspan>
<tspan x="10" y="2122">  ├─┬ user-home@2.0.0 </tspan>
<tspan x="10" y="2138">  │ └── os-homedir@1.0.2 </tspan>
<tspan x="10" y="2154">  └─┬ yeoman-environment@1.6.6 </tspan>
<tspan x="10" y="2170">    ├── diff@2.2.3 </tspan>
<tspan x="10" y="2186">    ├─┬ globby@4.1.0 </tspan>
<tspan x="10" y="2202">    │ ├── glob@6.0.4 </tspan>
<tspan x="10" y="2218">    │ └── object-assign@4.1.1 </tspan>
<tspan x="10" y="2234">    ├── grouped-queue@0.3.3 </tspan>
<tspan x="10" y="2250">    ├─┬ inquirer@1.2.3 </tspan>
<tspan x="10" y="2266">    │ ├── ansi-escapes@1.4.0 </tspan>
<tspan x="10" y="2282">    │ ├─┬ cli-cursor@1.0.2 </tspan>
<tspan x="10" y="2298">    │ │ └─┬ restore-cursor@1.0.1 </tspan>
<tspan x="10" y="2314">    │ │   ├── exit-hook@1.1.1 </tspan>
<tspan x="10" y="2330">    │ │   └── onetime@1.1.0 </tspan>
<tspan x="10" y="2346">    │ ├── cli-width@2.1.0 </tspan>
<tspan x="10" y="2362">    │ ├─┬ external-editor@1.1.1 </tspan>
<tspan x="10" y="2378">    │ │ ├── extend@3.0.0 </tspan>
<tspan x="10" y="2394">    │ │ ├─┬ spawn-sync@1.0.15 </tspan>
<tspan x="10" y="2410">    │ │ │ ├─┬ concat-stream@1.6.0 </tspan>
<tspan x="10" y="2426">    │ │ │ │ └── typedarray@0.0.6 </tspan>
<tspan x="10" y="2442">    │ │ │ └── os-shim@0.1.3 </tspan>
<tspan x="10" y="2458">    │ │ └─┬ tmp@0.0.29 </tspan>
<tspan x="10" y="2474">    │ │   └── os-tmpdir@1.0.2 </tspan>
<tspan x="10" y="2490">    │ ├─┬ figures@1.7.0 </tspan>
<tspan x="10" y="2506">    │ │ └── object-assign@4.1.1 </tspan>
<tspan x="10" y="2522">    │ ├── mute-stream@0.0.6 </tspan>
<tspan x="10" y="2538">    │ ├── rx@4.1.0 </tspan>
<tspan x="10" y="2554">    │ ├─┬ string-width@1.0.2 </tspan>
<tspan x="10" y="2570">    │ │ ├── code-point-at@1.1.0 </tspan>
<tspan x="10" y="2586">    │ │ └─┬ is-fullwidth-code-point@1.0.0 </tspan>
<tspan x="10" y="2602">    │ │   └── number-is-nan@1.0.1 </tspan>
<tspan x="10" y="2618">    │ └── through@2.3.8 </tspan>
<tspan x="10" y="2634">    ├── log-symbols@1.0.2 </tspan>
<tspan x="10" y="2650">    ├─┬ mem-fs@1.1.3 </tspan>
<tspan x="10" y="2666">    │ ├─┬ vinyl@1.2.0 </tspan>
<tspan x="10" y="2682">    │ │ ├── clone-stats@0.0.1 </tspan>
<tspan x="10" y="2698">    │ │ └── replace-ext@0.0.1 </tspan>
<tspan x="10" y="2714">    │ └─┬ vinyl-file@2.0.0 </tspan>
<tspan x="10" y="2730">    │   ├─┬ strip-bom@2.0.0 </tspan>
<tspan x="10" y="2746">    │   │ └── is-utf8@0.2.1 </tspan>
<tspan x="10" y="2762">    │   ├─┬ strip-bom-stream@2.0.0 </tspan>
<tspan x="10" y="2778">    │   │ ├── first-chunk-stream@2.0.0 </tspan>
<tspan x="10" y="2794">    │   │ └── strip-bom@2.0.0 </tspan>
<tspan x="10" y="2810">    │   └─┬ vinyl@1.2.0 </tspan>
<tspan x="10" y="2826">    │     ├── clone-stats@0.0.1 </tspan>
<tspan x="10" y="2842">    │     └── replace-ext@0.0.1 </tspan>
<tspan x="10" y="2858">    └── untildify@2.1.0</tspan>
</text>
</svg>
